<?xml version="1.0" encoding="utf-8"?>
<!-- Generator: Adobe Illustrator 27.2.0, SVG Export Plug-In . SVG Version: 6.00 Build 0)  -->
<svg version="1.1" id="Layer_1" xmlns="http://www.w3.org/2000/svg" xmlns:xlink="http://www.w3.org/1999/xlink" x="0px" y="0px"
	 viewBox="0 0 150 150" style="enable-background:new 0 0 150 150;" xml:space="preserve">
<style type="text/css">
	.st0{fill:none;stroke:#000000;stroke-width:0.5;stroke-miterlimit:10;}
	.st1{fill:none;stroke:#000000;stroke-width:0.5;stroke-miterlimit:10;}
	.st2{fill:#000097;}
	.st3{fill:#AF0000;}
</style>
<g>
	<path class="st0" d="M86.67,55.1"/>
	<polygon class="st1" points="74.03,50.99 59.8,92.04 74.03,92.04 87.52,50.99 	"/>
	<polyline class="st1" points="87.52,50.99 101.69,92.04 87.52,92.04 74.03,50.99 	"/>
	<g>
		<path class="st2" d="M47.51,101.54l-1.33,3.48h-1.71l4.34-11.07h1.99l4.36,11.07h-1.76l-1.37-3.48H47.51z M51.7,100.43l-1.25-3.18
			c-0.28-0.72-0.47-1.38-0.66-2.02h-0.04c-0.19,0.66-0.4,1.33-0.65,2l-1.25,3.2H51.7z"/>
		<path class="st2" d="M56.93,99.67c0-1.02-0.04-1.84-0.08-2.59h1.5l0.08,1.36h0.04c0.68-0.97,1.76-1.54,3.26-1.54
			c2.22,0,3.89,1.62,3.89,4.04c0,2.86-2.01,4.27-4.17,4.27c-1.21,0-2.28-0.46-2.83-1.25h-0.04v4.32h-1.65V99.67z M58.58,101.79
			c0,0.21,0.04,0.41,0.08,0.59c0.3,1,1.31,1.69,2.5,1.69c1.76,0,2.79-1.25,2.79-3.07c0-1.59-0.97-2.96-2.73-2.96
			c-1.14,0-2.2,0.71-2.52,1.79c-0.06,0.18-0.11,0.39-0.11,0.59V101.79z"/>
		<path class="st2" d="M68.65,101.31c0.04,1.95,1.48,2.76,3.15,2.76c1.19,0,1.92-0.18,2.54-0.41l0.28,1.03
			c-0.59,0.23-1.59,0.49-3.05,0.49c-2.83,0-4.51-1.61-4.51-4.01c0-2.4,1.63-4.29,4.31-4.29c3,0,3.79,2.28,3.79,3.74
			c0,0.3-0.04,0.53-0.06,0.67H68.65z M73.55,100.28c0.02-0.92-0.44-2.35-2.31-2.35c-1.69,0-2.43,1.35-2.56,2.35H73.55z"/>
		<path class="st3" d="M77.28,94.11c1-0.13,2.2-0.23,3.51-0.23c2.37,0,4.06,0.48,5.18,1.38c1.14,0.9,1.8,2.18,1.8,3.97
			c0,1.81-0.64,3.28-1.84,4.3c-1.2,1.03-3.17,1.59-5.65,1.59c-1.18,0-2.16-0.05-3-0.13V94.11z M78.93,103.89
			c0.42,0.07,1.02,0.08,1.67,0.08c3.53,0,5.44-1.71,5.44-4.7c0.02-2.61-1.69-4.27-5.18-4.27c-0.85,0-1.5,0.07-1.93,0.15V103.89z"/>
		<path class="st3" d="M97.6,102.86c0,0.82,0.02,1.54,0.08,2.17h-1.48l-0.09-1.3h-0.04c-0.44,0.64-1.4,1.48-3.03,1.48
			c-1.44,0-3.17-0.69-3.17-3.48v-4.65h1.67v4.4c0,1.51,0.53,2.53,2.05,2.53c1.12,0,1.9-0.67,2.2-1.31c0.09-0.21,0.15-0.48,0.15-0.74
			v-4.88h1.67V102.86z"/>
		<path class="st3" d="M106.91,104.73c-0.44,0.2-1.4,0.46-2.64,0.46c-2.77,0-4.57-1.62-4.57-4.06c0-2.45,1.93-4.22,4.93-4.22
			c0.99,0,1.86,0.21,2.31,0.41l-0.38,1.12c-0.4-0.2-1.02-0.38-1.93-0.38c-2.11,0-3.24,1.35-3.24,3c0,1.84,1.37,2.97,3.19,2.97
			c0.95,0,1.57-0.21,2.05-0.39L106.91,104.73z"/>
		<path class="st3" d="M111.12,94.8v2.28h2.39v1.1h-2.39v4.29c0,0.99,0.32,1.54,1.25,1.54c0.44,0,0.76-0.05,0.97-0.1l0.08,1.08
			c-0.32,0.12-0.83,0.2-1.48,0.2c-0.78,0-1.4-0.21-1.8-0.61c-0.47-0.43-0.65-1.13-0.65-2.07v-4.33h-1.42v-1.1h1.42v-1.91
			L111.12,94.8z"/>
	</g>
	<g>
	</g>
</g>
<g>
</g>
<g>
</g>
<g>
</g>
<g>
</g>
<g>
</g>
<g>
</g>
<g>
</g>
<g>
</g>
<g>
</g>
<g>
</g>
<g>
</g>
<g>
</g>
<g>
</g>
<g>
</g>
<g>
</g>
</svg>
